<?xml version="1.0" standalone="no"?>
<!DOCTYPE svg PUBLIC "-//W3C//DTD SVG 20010904//EN"
 "http://www.w3.org/TR/2001/REC-SVG-20010904/DTD/svg10.dtd">
<svg version="1.0" xmlns="http://www.w3.org/2000/svg"
 width="1536.000000pt" height="1536.000000pt" viewBox="0 0 1536.000000 1536.000000"
 preserveAspectRatio="xMidYMid meet">
<metadata>
Created by potrace 1.14, written by Peter Selinger 2001-2017
</metadata>
<g transform="translate(0.000000,1536.000000) scale(0.100000,-0.100000)"
fill="#000000" stroke="none">
<path d="M4320 13680 l0 -240 -240 0 -240 0 0 -480 0 -480 -240 0 -240 0 0
-2640 0 -2640 240 0 240 0 0 240 0 240 240 0 240 0 0 -480 0 -480 -240 0 -240
0 0 -1200 0 -1200 240 0 240 0 0 -720 0 -720 240 0 240 0 0 -240 0 -240 240 0
240 0 0 -240 0 -240 240 0 240 0 0 -240 0 -240 1920 0 1920 0 0 240 0 240 240
0 240 0 0 240 0 240 240 0 240 0 0 240 0 240 240 0 240 0 0 720 0 720 240 0
240 0 0 1200 0 1200 -240 0 -240 0 0 480 0 480 240 0 240 0 0 -240 0 -240 240
0 240 0 0 1920 0 1920 -240 0 -240 0 0 240 0 240 -240 0 -240 0 0 480 0 480
-240 0 -240 0 0 240 0 240 -480 0 -480 0 0 240 0 240 -720 0 -720 0 0 240 0
240 -1920 0 -1920 0 0 -240z m5280 -2880 l0 -240 720 0 720 0 0 -240 0 -240
240 0 240 0 0 -960 0 -960 -480 0 -480 0 0 -720 0 -720 240 0 240 0 0 -240 0
-240 -240 0 -240 0 0 -480 0 -480 -240 0 -240 0 0 -480 0 -480 -480 0 -480 0
0 240 0 240 -480 0 -480 0 0 -240 0 -240 -480 0 -480 0 0 240 0 240 -480 0
-480 0 0 -240 0 -240 -480 0 -480 0 0 480 0 480 -240 0 -240 0 0 480 0 480
-240 0 -240 0 0 240 0 240 240 0 240 0 0 720 0 720 -480 0 -480 0 0 960 0 960
240 0 240 0 0 240 0 240 720 0 720 0 0 240 0 240 1920 0 1920 0 0 -240z m-480
-7200 l0 -240 -240 0 -240 0 0 -240 0 -240 -240 0 -240 0 0 240 0 240 -480 0
-480 0 0 -240 0 -240 -240 0 -240 0 0 240 0 240 -240 0 -240 0 0 240 0 240
1440 0 1440 0 0 -240z"/>
<path d="M4800 8400 l0 -240 960 0 960 0 0 -720 0 -720 -960 0 -960 0 0 -240
0 -240 960 0 960 0 0 240 0 240 240 0 240 0 0 240 0 240 480 0 480 0 0 -240 0
-240 240 0 240 0 0 -240 0 -240 960 0 960 0 0 240 0 240 -960 0 -960 0 0 720
0 720 960 0 960 0 0 240 0 240 -1200 0 -1200 0 0 -480 0 -480 -480 0 -480 0 0
480 0 480 -1200 0 -1200 0 0 -240z"/>
<path d="M5760 7440 l0 -240 240 0 240 0 0 240 0 240 -240 0 -240 0 0 -240z"/>
<path d="M9120 7440 l0 -240 240 0 240 0 0 240 0 240 -240 0 -240 0 0 -240z"/>
</g>
</svg>
